# xmcd
# 
# Track frame offsets:
#     150
#     19438
#     42816
#     63564
# 
# Disc length: 1101
# 
# Revision: 2
# Processed by: cddbd v1.5.2PL0 Copyright (c) Steve Scherf et al.
# Submitted via: fre:ac v1.0.17
# 
DISCID=31044b04
DTITLE=綾野ましろ - ideal white
DYEAR=2014
DGENRE=Anime
TTITLE0=ideal white
TTITLE1=pledge of stars
TTITLE2=燐光
TTITLE3=ideal white (instrumental)
EXTD=YEAR: 2001
EXTT0=
EXTT1=
EXTT2=
EXTT3=
PLAYORDER=
